<svg width="80" height="80" viewBox="0 0 80 80" fill="none" xmlns="http://www.w3.org/2000/svg">
<path d="M41.0717 22.9483C33.595 23.04 26.3967 22.4866 18.6433 23.2216C17.785 23.3033 16.865 23.2583 16.1483 23.74C15.0517 24.475 14.8283 25.9683 14.7267 27.285C14.11 35.2316 14.2733 43.2383 15.2083 51.1533C15.435 53.07 15.905 55.275 17.63 56.1433C18.425 56.5433 19.3483 56.5716 20.2383 56.5916C26.1733 56.7266 32.1083 56.8616 38.0433 56.9966C44.98 57.155 51.9267 57.3116 58.85 56.845C60.2083 56.7533 61.6467 56.6083 62.7283 55.7816C64.1267 54.715 64.5517 52.8166 64.7383 51.0683C65.2117 46.6283 64.765 42.1483 64.3183 37.705C63.9883 34.425 63.6583 31.1433 63.3283 27.8633C63.1633 26.2316 62.8983 24.41 61.5967 23.4133C60.8 22.8033 59.7667 22.4233 58.765 22.495C52.3767 22.9616 47.2483 22.3633 41.0717 22.9483Z" fill="#D6E5E5"/>
<path d="M48.4867 57.9866C44.97 57.9866 41.4667 57.9066 38.0233 57.8283L20.2183 57.4233C19.335 57.4033 18.2333 57.3783 17.2567 56.885C15.1733 55.8383 14.6267 53.3233 14.3817 51.25C13.44 43.2867 13.2767 35.2017 13.8967 27.22C13.9733 26.2033 14.1367 24.0867 15.6833 23.0483C16.445 22.535 17.315 22.4783 18.0817 22.4283L18.5633 22.3933C23.775 21.8983 28.8033 21.9833 33.6683 22.0633C36.1117 22.105 38.5533 22.1467 41.025 22.1167C44.3067 21.8083 47.35 21.8283 50.295 21.8467C52.965 21.865 55.7083 21.8817 58.7 21.665C59.845 21.5767 61.0883 21.9783 62.0983 22.7517C63.65 23.9367 63.9717 25.97 64.1517 27.7817L65.1433 37.6217C65.59 42.0383 66.0483 46.605 65.5633 51.1583C65.375 52.935 64.94 55.1416 63.23 56.445C61.985 57.395 60.41 57.575 58.9033 57.6766C55.4467 57.91 51.96 57.9866 48.4867 57.9866ZM28.0783 23.6683C25.0183 23.6683 21.8967 23.7517 18.7217 24.0517L18.1917 24.0917C17.5817 24.1317 17.0033 24.1683 16.6133 24.4317C15.8433 24.9483 15.6517 26.1383 15.56 27.3483C14.9483 35.225 15.1083 43.2 16.0367 51.0567C16.2333 52.7167 16.6333 54.7083 18.0067 55.3983C18.65 55.7216 19.4667 55.7417 20.26 55.7583L38.065 56.1633C44.87 56.3183 51.9083 56.48 58.7967 56.0133C60.1 55.925 61.345 55.79 62.2267 55.12C63.43 54.2016 63.76 52.4267 63.9133 50.9817C64.38 46.6017 63.93 42.1216 63.4933 37.79L62.5017 27.9483C62.3483 26.4167 62.115 24.8567 61.0917 24.075C60.41 23.5533 59.5433 23.285 58.8267 23.3267C55.7717 23.55 52.9867 23.53 50.29 23.5133C47.245 23.495 44.3633 23.475 41.1533 23.7783L41.085 23.7817C38.5917 23.8133 36.1183 23.7717 33.6467 23.73C31.8117 23.7 29.9567 23.6683 28.0783 23.6683ZM41.0717 22.95H41.0883H41.0717Z" fill="#010101"/>
<path d="M39.4317 46.6834C39.2017 46.6834 38.9667 46.6734 38.7183 46.6551C35.66 46.4201 33.195 44.3184 31.1216 42.3667C25.51 37.0801 20.2833 31.3067 15.5833 25.2101C15.3033 24.8451 15.37 24.3217 15.735 24.0417C16.1033 23.7584 16.6233 23.8284 16.905 24.1934C21.55 30.2217 26.7183 35.9284 32.265 41.1551C34.1283 42.9117 36.3283 44.8017 38.845 44.9934C41.38 45.1817 42.58 44.1451 44.5667 42.4184L45.2267 41.8467C49.1 38.5284 52.8383 33.5434 56.455 28.7217C58.025 26.6267 59.51 24.6484 60.9467 22.8867C61.24 22.5317 61.765 22.4784 62.12 22.7684C62.4767 23.0584 62.5283 23.5834 62.2383 23.9417C60.82 25.6767 59.3483 27.6417 57.7867 29.7217C54.1167 34.6151 50.3217 39.6751 46.3083 43.1134L45.6567 43.6751C43.7467 45.3417 42.2033 46.6834 39.4317 46.6834Z" fill="#010101"/>
<path d="M62.825 55.5067C62.6633 55.5067 62.5033 55.4601 62.36 55.3651C59.2767 53.2867 56.915 50.4417 54.4133 47.4317C52.4767 45.0984 50.475 42.6867 47.985 40.4417C47.6433 40.1334 47.615 39.6067 47.925 39.2651C48.235 38.9234 48.76 38.8967 49.1017 39.2051C51.68 41.5301 53.7217 43.9901 55.6967 46.3684C58.1183 49.2851 60.4067 52.0401 63.2917 53.9851C63.6733 54.2417 63.775 54.7601 63.5183 55.1417C63.3567 55.3784 63.0917 55.5067 62.825 55.5067Z" fill="#010101"/>
<path d="M16.6368 56.1883C16.4468 56.1883 16.2551 56.1233 16.1001 55.9917C15.7484 55.695 15.7034 55.1683 16.0001 54.8167L16.7584 53.9117C18.7184 51.5683 20.9384 48.9117 23.2834 47.1217C24.4201 46.2567 28.4784 41.2183 28.6018 40.1817C28.6518 39.74 29.0484 39.3817 29.4901 39.4167C29.9351 39.4483 30.2784 39.7917 30.2668 40.2367C30.2201 42.055 25.2884 47.69 24.2934 48.4483C22.0968 50.1267 19.9401 52.7067 18.0351 54.9833L17.2718 55.8933C17.1101 56.0883 16.8734 56.1883 16.6368 56.1883Z" fill="#010101"/>
</svg>
