<svg width="80" height="80" viewBox="0 0 80 80" fill="none" xmlns="http://www.w3.org/2000/svg">
<path d="M38.6183 50.34L32.9083 55.9634C32.9083 55.9634 32.66 56.155 32.3283 56.1634C32.2133 56.1667 32.09 56.1484 31.9633 56.0917L33.57 46.15L38.6183 50.34Z" fill="#BCBCBC"/>
<path d="M33.575 45.995C33.16 47.9116 33.4083 49.5316 32.8567 51.4133C32.4983 52.635 32.0183 55.475 31.0317 56.2783C28.71 52.685 28.1017 47.5433 26.5167 43.8633L47.33 30.5416L49.0183 30.5816L48.545 32.3716L33.575 45.995Z" fill="#BCBCBC"/>
<path d="M34.4633 46.8416C36.2267 49.1183 37.5283 50.3 39.7683 52.11C42.04 53.9466 44.4117 55.48 46.9217 56.975C47.195 57.1383 48.3067 57.6516 48.595 57.7883C49.3067 58.125 49.7983 57.4316 49.9233 57.0983C50.91 54.4666 51.13 53.4866 51.745 51.455C52.88 47.695 53.42 44.69 54.1667 40.835C55.1317 35.8583 56.1733 30.005 56.4783 24.9433C56.5133 24.36 56.455 23.6266 55.9133 23.4083C55.6783 23.3133 54.4267 23.37 54.1767 23.41C48.5883 24.335 44.2183 26.2783 38.9 28.2316C37.575 28.7183 36.2483 29.205 34.9233 29.6916C30.095 31.4633 28.24 32.705 23.4133 34.4766C22.2483 34.905 19.5783 36.255 18.115 36.91C16.9817 37.4166 16.71 37.515 17.3067 38.605C17.665 39.2583 19.815 40.8216 20.465 41.185C21.96 42.0216 23.0317 42.51 24.6617 43.0333C25.2817 43.2316 25.4733 43.355 26.125 43.3416C26.9367 43.325 27.9717 42.4883 28.6783 42.0866C32.9033 39.6833 34.74 38.075 38.7467 35.695C41.4433 34.0933 44.43 31.7316 47.3317 30.545C47.8917 30.3166 48.63 30.125 49.02 30.585C49.46 31.1016 49.01 31.8783 48.5467 32.375C47.0583 33.9716 44.3217 36.8433 42.6117 38.2016C39.2367 40.885 36.1333 43.0583 33.7383 45.7066C33.5133 45.955 34.2567 46.575 34.4633 46.8416Z" fill="#D6E5E5"/>
<path d="M48.97 58.7134C48.7267 58.7134 48.4783 58.6567 48.24 58.5417L48.025 58.44C47.57 58.225 46.735 57.8317 46.4967 57.69C44.4633 56.4784 41.8033 54.8217 39.245 52.7567C36.93 50.8867 35.5967 49.6634 33.805 47.3517C33.7683 47.3034 33.705 47.2417 33.6367 47.1717C33.245 46.7634 32.4283 45.9117 33.12 45.1467C35.0233 43.0417 37.3717 41.2234 39.8567 39.2967C40.585 38.7334 41.3317 38.1534 42.0933 37.5484C43.7533 36.23 46.4667 33.385 47.9367 31.8067C48.2283 31.4934 48.3517 31.215 48.365 31.105C48.3267 31.13 48.115 31.125 47.6467 31.315C45.7983 32.0717 43.8717 33.35 42.0117 34.5867C41.04 35.2317 40.0883 35.865 39.17 36.41C37.3483 37.4917 35.96 38.425 34.6167 39.3284C33.0333 40.3934 31.3967 41.495 29.0867 42.8084C28.925 42.9 28.745 43.0167 28.555 43.14C27.8217 43.615 26.9883 44.1517 26.1417 44.1717C25.45 44.1684 25.1283 44.0684 24.7033 43.9234L24.4033 43.8217C22.7983 43.3067 21.66 42.8084 20.055 41.9084C19.515 41.6067 17.0867 39.9384 16.5733 39.0017C16.305 38.51 16.035 37.9384 16.23 37.355C16.4367 36.7434 16.9733 36.5034 17.7167 36.17C18.3067 35.9067 19.0067 35.5717 19.7333 35.225C21.0217 34.61 22.3533 33.975 23.125 33.6917C25.51 32.8167 27.1933 32.0567 28.8233 31.3217C30.48 30.575 32.1917 29.8017 34.635 28.9067L38.6133 27.4467C39.63 27.0734 40.6117 26.7 41.5733 26.335C45.62 24.7984 49.4417 23.3484 54.0383 22.5867C54.055 22.585 55.67 22.4117 56.225 22.6334C56.7717 22.8534 57.4033 23.4417 57.3083 24.9934C57 30.115 55.96 35.955 54.9833 40.9917L54.7933 41.975C54.1467 45.325 53.5883 48.2184 52.54 51.6934L52.1667 52.965C51.78 54.2917 51.4717 55.34 50.7033 57.39C50.55 57.7967 50.1633 58.3534 49.5717 58.5934C49.375 58.6717 49.1733 58.7134 48.97 58.7134ZM34.7117 45.8817C34.76 45.9334 34.8067 45.9817 34.84 46.0167C34.9567 46.1384 35.0583 46.2484 35.1217 46.33C36.8217 48.5234 38.0383 49.64 40.2933 51.4617C42.7683 53.46 45.3633 55.075 47.35 56.2584C47.565 56.385 48.3217 56.7384 48.7333 56.9317L48.955 57.035C49.0033 57.0267 49.1133 56.8917 49.145 56.8034C49.89 54.8134 50.19 53.79 50.5683 52.4984L50.95 51.2134C51.9733 47.8217 52.4983 45.1034 53.16 41.6617L53.35 40.675C54.3167 35.6917 55.345 29.9184 55.6483 24.8934C55.6833 24.32 55.57 24.1584 55.57 24.1567C55.475 24.1684 54.535 24.1984 54.3133 24.2317C49.88 24.965 46.135 26.3884 42.1683 27.895C41.2 28.2617 40.2117 28.6367 39.19 29.0117L35.2117 30.4717C32.825 31.3467 31.14 32.1067 29.5117 32.8417C27.855 33.5884 26.1433 34.36 23.7017 35.2567C23.0033 35.5134 21.65 36.16 20.455 36.73C19.715 37.0834 19.0017 37.425 18.455 37.6684C18.2433 37.7634 18.0383 37.855 17.8967 37.9267C17.9283 37.9934 17.9717 38.0834 18.0367 38.2034C18.2817 38.625 20.1617 40.0584 20.87 40.4567C22.3867 41.305 23.4067 41.755 24.915 42.2367L25.2467 42.3484C25.6083 42.4717 25.7333 42.5067 26.1083 42.5067C26.4817 42.4984 27.1867 42.0434 27.6517 41.7417C27.8717 41.6 28.0783 41.4667 28.265 41.36C30.5217 40.0767 32.06 39.0417 33.6883 37.945C35.05 37.0284 36.4583 36.0817 38.32 34.975C39.215 34.4434 40.1433 33.8267 41.09 33.1984C43.0183 31.915 45.0133 30.59 47.0167 29.77C48.4883 29.1667 49.265 29.5834 49.6567 30.04C50.305 30.8034 50.1117 31.915 49.1583 32.94C47.3233 34.91 44.7883 37.535 43.1333 38.8517C42.3667 39.4617 41.6133 40.0434 40.88 40.6134C38.6083 42.3734 36.4567 44.04 34.7117 45.8817Z" fill="#010101"/>
<path d="M31.0333 57.1134C30.99 57.1134 30.9467 57.1101 30.9033 57.1034C30.67 57.0667 30.4617 56.9301 30.3333 56.7317C28.855 54.4434 28.06 51.6334 27.2933 48.9184C26.81 47.2067 26.3533 45.5884 25.7533 44.1951C25.5717 43.7717 25.765 43.2817 26.1883 43.1001C26.6067 42.9167 27.1 43.1134 27.2833 43.5351C27.9283 45.0301 28.3983 46.6984 28.8983 48.4651C29.5033 50.6034 30.1233 52.8034 31.0733 54.6734C31.3817 53.8934 31.635 52.8584 31.7983 52.1901C31.8933 51.8017 31.9783 51.4534 32.0583 51.1817C32.335 50.2384 32.3933 49.3501 32.4533 48.4101C32.5067 47.5934 32.5617 46.7484 32.7617 45.8217C32.86 45.3717 33.3067 45.0901 33.7533 45.1834C34.2033 45.2801 34.4883 45.7234 34.3917 46.1734C34.2183 46.9784 34.1683 47.7267 34.1167 48.5184C34.0517 49.5067 33.985 50.5301 33.6583 51.6501C33.585 51.9017 33.505 52.2267 33.4167 52.5867C32.9433 54.5184 32.4783 56.1801 31.56 56.9267C31.41 57.0484 31.2233 57.1134 31.0333 57.1134Z" fill="#010101"/>
<path d="M31.2617 57.08C31.02 57.08 30.78 56.9767 30.615 56.7733C30.3233 56.4167 30.3767 55.8917 30.7333 55.6017C30.9567 55.42 31.16 55.24 31.36 55.0667C31.8617 54.6267 32.3783 54.1733 33.0683 53.7767C33.2883 53.6517 33.6983 53.3833 34.41 52.815C34.6067 52.6583 35.0833 52.1517 35.4533 51.73C35.8217 51.3117 36.075 51.045 36.3283 50.7783C36.5717 50.5233 36.8133 50.2683 37.165 49.8683C37.47 49.5233 37.9967 49.4883 38.3417 49.7933C38.6883 50.0967 38.7217 50.6233 38.4167 50.9683C38.0467 51.39 37.7917 51.6583 37.5367 51.9267C37.295 52.1783 37.0533 52.4333 36.705 52.83C36.5067 53.055 35.8333 53.8117 35.4483 54.1167C34.8117 54.6267 34.2883 54.9983 33.8967 55.2217C33.3517 55.535 32.9367 55.9 32.455 56.32C32.2433 56.5067 32.0233 56.6983 31.7867 56.8917C31.6333 57.0183 31.4467 57.08 31.2617 57.08Z" fill="#010101"/>
</svg>
